<svg xmlns="http://www.w3.org/2000/svg" width="120" height="120" viewBox="-0.000946044921875 0 127.8153076171875 120.75190734863281">
	<g>
		<path d="M98.6 55.31C98.6 24.76 82 0 61.53 0 46.4 0 33.39 13.54 27.63 32.94c6.64-7.85 15-12.55 24.16-12.55 21.49 0 38.92 26 38.92 58.07a85.94 85.94 0 0 1-.93 12.64c5.5-9.64 8.82-22.1 8.82-35.79z" fill="#0B5394"></path>
		<path d="M56.84 41.55A85.94 85.94 0 0 1 68.25 36c-11.1.06-23.58 3.43-35.41 10.26C6.39 61.56-6.76 88.32 3.47 106 11 119.15 29.27 123.65 49 118.93c-10.12-1.82-18.38-6.74-22.95-14.65-10.79-18.61 3.01-46.7 30.79-62.73z" fill="#3D85C6"></path>
		<path d="M112.76 57.47c3.48 9.68 3.35 19.29-1.21 27.2-10.75 18.61-42 20.7-69.74 4.67a86 86 0 0 1-10.49-7.13c5.61 9.58 14.76 18.71 26.59 25.54 26.45 15.25 56.2 13.25 66.43-4.45 7.57-13.1 2.35-31.14-11.58-45.83z" fill="#6FA8DC"></path>
	</g>
</svg>