<svg data-v-decfdd8a="" version="1.0"
	xmlns="http://www.w3.org/2000/svg"
	xmlns:xlink="http://www.w3.org/1999/xlink" width="100%" height="100%" viewBox="0 0 150 120" preserveAspectRatio="xMidYMid meet" color-interpolation-filters="sRGB" >
	<!-- <rect data-v-decfdd8a="" x="0" y="0" width="100%" height="100%" fill="#040e29" fill-opacity="1" class="background"></rect> -->
	<!-- <rect data-v-decfdd8a="" x="0" y="0" width="100%" height="100%" fill="url(#watermark)" fill-opacity="1" class="watermarklayer"></rect> -->
	<g data-v-decfdd8a="" class="iconmbgsvg" >
		<g fill="#000000" hollow-target="textRect" transform="translate(0, 6)" >
			<g transform="translate(20.79999542236328, 0)" mask="url(#7935f3c1-0d06-4ea9-9c5b-c643d57d67c2)">
				<g>
					<rect fill="#000000" fill-opacity="0" stroke-width="2" x="0" y="0" width="107.5" height="107.48495210670505" class="image-rect"></rect>
					<svg filter="url(#colors174692720)" x="0" y="0" width="107.5" height="107.48495210670505" filtersec="colorsf1588799999" class="image-svg-svg primary" style="overflow: visible;">
						<svg fill="#000000"
							xmlns:x="http://ns.adobe.com/Extensibility/1.0/"
							xmlns:i="http://ns.adobe.com/AdobeIllustrator/10.0/"
							xmlns:graph="http://ns.adobe.com/Graphs/1.0/"
							xmlns="http://www.w3.org/2000/svg"
							xmlns:xlink="http://www.w3.org/1999/xlink" version="1.1" x="0px" y="0px" viewBox="0 0 10 10" enable-background="new 0 0 90 90" xml:space="preserve">
							<g>
								<g i:extraneous="self">
									<path d="M89.1,42.9c-1.5-1.4-2.1-3-0.9-4.8c0.8-1.3,0.5-3-0.8-3.9c-1.8-1.2-1.9-2.7-1.1-4.4c0.7-1.5-0.1-3.3-1.6-3.9    c-1.7-0.6-2.7-1.7-2.4-3.7c0.3-1.5-0.7-3-2.3-3.3c-1.9-0.4-2.6-1.7-2.5-3.5c0-1.7-1.3-3-3-3c-1.8,0-3.1-0.6-3.5-2.5    c-0.3-1.5-1.8-2.5-3.3-2.3c-2,0.4-3-0.6-3.7-2.4c-0.6-1.6-2.3-2.3-3.9-1.6c-1.8,0.8-3.3,0.6-4.4-1.1c-0.8-1.3-2.6-1.7-3.9-0.8    C50,3,48.5,2.4,47.1,0.9c-1.1-1.2-3-1.2-4.1,0C41.5,2.4,40,3,38.1,1.8c-1.3-0.8-3-0.5-3.9,0.8c-1.2,1.8-2.7,1.9-4.4,1.1    C28.3,3,26.5,3.8,26,5.3c-0.6,1.7-1.7,2.7-3.7,2.4c-1.5-0.3-3,0.7-3.3,2.3c-0.4,1.9-1.7,2.5-3.5,2.5c-1.7,0-3,1.3-3,3    c0,1.8-0.6,3.1-2.5,3.5c-1.5,0.3-2.5,1.8-2.3,3.3c0.4,2-0.6,3-2.4,3.7c-1.6,0.6-2.3,2.3-1.6,3.9c0.8,1.8,0.6,3.3-1.1,4.4    c-1.3,0.8-1.7,2.6-0.8,3.9C3,40,2.4,41.5,0.9,42.9c-1.2,1.1-1.2,3,0,4.1c1.5,1.4,2.1,3,0.9,4.8c-0.8,1.3-0.5,3,0.8,3.9    c1.8,1.2,1.9,2.7,1.1,4.4C3,61.7,3.8,63.5,5.3,64c1.7,0.7,2.7,1.7,2.4,3.7c-0.3,1.5,0.7,3,2.3,3.3c1.9,0.4,2.5,1.7,2.5,3.5    c0,1.7,1.3,3,3,3c1.8,0,3.1,0.6,3.5,2.5c0.3,1.5,1.8,2.5,3.3,2.3c2-0.4,3,0.6,3.7,2.4c0.6,1.6,2.3,2.3,3.9,1.6    c1.8-0.8,3.3-0.6,4.4,1.1c0.8,1.3,2.6,1.7,3.9,0.8c1.9-1.2,3.4-0.6,4.8,0.9c1.1,1.2,3,1.2,4.1,0c1.4-1.5,3-2.1,4.8-0.9    c1.3,0.8,3,0.5,3.9-0.8c1.2-1.8,2.7-1.9,4.4-1.1c1.5,0.7,3.3-0.1,3.9-1.6c0.7-1.7,1.7-2.7,3.7-2.4c1.5,0.3,3-0.7,3.3-2.3    c0.4-1.9,1.7-2.6,3.5-2.5c1.7,0,3-1.3,3-3c0-1.8,0.6-3.1,2.5-3.5c1.5-0.3,2.5-1.8,2.3-3.3c-0.4-2,0.6-3,2.4-3.7    c1.6-0.6,2.3-2.3,1.6-3.9c-0.8-1.7-0.6-3.3,1.1-4.4c1.3-0.8,1.7-2.6,0.8-3.9c-1.2-1.9-0.6-3.4,0.9-4.8C90.3,46,90.3,44,89.1,42.9z     M45,82.2C24.5,82.2,7.8,65.5,7.8,45C7.8,24.5,24.5,7.8,45,7.8c20.5,0,37.2,16.6,37.2,37.2C82.2,65.5,65.5,82.2,45,82.2z"></path>
								</g>
							</g>
						</svg>
					</svg>
					<defs>
						<filter id="colors174692720">
							<feColorMatrix type="matrix" values="0 0 0 0 0  0 0 0 0 0  0 0 0 0 0  0 0 0 1 0" class="icon-fecolormatrix"></feColorMatrix>
						</filter>
						<filter id="colorsf1588799999">
							<feColorMatrix type="matrix" values="0 0 0 0 0.99609375  0 0 0 0 0.99609375  0 0 0 0 0.99609375  0 0 0 1 0" class="icon-fecolormatrix"></feColorMatrix>
						</filter>
						<filter id="colorsb1837016361">
							<feColorMatrix type="matrix" values="0 0 0 0 0  0 0 0 0 0  0 0 0 0 0  0 0 0 1 0" class="icon-fecolormatrix"></feColorMatrix>
						</filter>
					</defs>
				</g>
				<rect v-gra="id" width="119.5" height="119.48495483398438" transform="translate(-6, -6)" style="pointer-events:none;" fill="url(#x3596IfWyo9YPK90CpFDt)"></rect>
			</g>
			<g transform="translate(0,32.142478942871094)">
				<g data-gra="path-name" fill-rule="" class="tp-name" fill="url(#08b2c2d7-b239-4f84-a1e8-ce779a7d731b)">
					<g transform="scale(1)">
						<g>
							<path d="M3.84 0Q3.24 0 2.85-0.39 2.46-0.78 2.46-1.44L2.46-1.44 2.46-3.84Q2.46-4.86 2.88-5.46 3.3-6.06 3.36-6.12L3.36-6.12 25.86-36.96 4.38-36.96Q3.78-36.96 3.39-37.35 3-37.74 3-38.34L3-38.34 3-40.56Q3-41.22 3.39-41.61 3.78-42 4.38-42L4.38-42 31.38-42Q32.04-42 32.43-41.61 32.82-41.22 32.82-40.56L32.82-40.56 32.82-38.16Q32.82-37.08 32.04-36.06L32.04-36.06 9.78-5.04 32.04-5.04Q32.7-5.04 33.09-4.65 33.48-4.26 33.48-3.66L33.48-3.66 33.48-1.38Q33.48-0.78 33.06-0.39 32.64 0 32.04 0L32.04 0 3.84 0ZM55.74 0.6Q47.94 0.6 43.68-3.51 39.42-7.62 39.18-15.9L39.18-15.9Q39.12-17.7 39.12-21L39.12-21Q39.12-24.3 39.18-26.04L39.18-26.04Q39.42-34.2 43.83-38.4 48.24-42.6 55.74-42.6L55.74-42.6Q63.24-42.6 67.62-38.4 72-34.2 72.24-26.04L72.24-26.04Q72.36-22.56 72.36-21L72.36-21Q72.36-19.5 72.24-15.9L72.24-15.9Q72-7.62 67.77-3.51 63.54 0.6 55.74 0.6L55.74 0.6ZM55.74-4.38Q60.54-4.38 63.42-7.29 66.3-10.2 66.54-16.2L66.54-16.2Q66.66-19.8 66.66-21L66.66-21Q66.66-22.32 66.54-25.8L66.54-25.8Q66.3-31.8 63.42-34.74 60.54-37.68 55.74-37.68L55.74-37.68Q50.94-37.68 48.03-34.74 45.12-31.8 44.94-25.8L44.94-25.8Q44.88-24.06 44.88-21L44.88-21Q44.88-18 44.94-16.2L44.94-16.2Q45.12-10.2 48-7.29 50.88-4.38 55.74-4.38L55.74-4.38ZM77.58 0Q77.1 0 76.74-0.36 76.38-0.72 76.38-1.2L76.38-1.2 76.5-1.86 91.38-40.68Q91.86-42 93.3-42L93.3-42 97.14-42Q98.58-42 99.06-40.68L99.06-40.68 113.94-1.86 114.06-1.2Q114.06-0.72 113.67-0.36 113.28 0 112.8 0L112.8 0 109.98 0Q109.38 0 108.99-0.33 108.6-0.66 108.48-1.02L108.48-1.02 105.12-9.66 85.26-9.66 81.96-1.02Q81.48 0 80.46 0L80.46 0 77.58 0ZM95.22-36.18L87-14.64 103.44-14.64 95.22-36.18ZM121.86 0Q121.26 0 120.9-0.39 120.54-0.78 120.54-1.38L120.54-1.38 120.54-40.56Q120.54-41.22 120.9-41.61 121.26-42 121.86-42L121.86-42 137.04-42Q143.82-42 147.69-38.73 151.56-35.46 151.56-29.22L151.56-29.22Q151.56-22.98 147.69-19.74 143.82-16.5 137.04-16.5L137.04-16.5 126.24-16.5 126.24-1.38Q126.24-0.78 125.85-0.39 125.46 0 124.86 0L124.86 0 121.86 0ZM126.24-21.36L136.74-21.36Q145.8-21.36 145.8-29.22L145.8-29.22Q145.8-33.06 143.55-35.1 141.3-37.14 136.74-37.14L136.74-37.14 126.24-37.14 126.24-21.36Z" transform="translate(-2.4600000381469727, 42.599998474121094)"></path>
						</g>
					</g>
				</g>
			</g>
		</g>
	</g>
	<mask id="f6ae0167-8fa5-438e-9604-a2a3f2691856">
		<g fill="white">
			<g>
				<rect fill-opacity="1" stroke-width="2" x="0" y="0" width="107.5" height="107.48495210670505" class="image-rect"></rect>
				<svg x="0" y="0" width="107.5" height="107.48495210670505" class="image-svg-svg primary" style="overflow: visible;" filter="url(#colorsf1588799999)">
					<svg xmlns:x="http://ns.adobe.com/Extensibility/1.0/"
						xmlns:i="http://ns.adobe.com/AdobeIllustrator/10.0/"
						xmlns:graph="http://ns.adobe.com/Graphs/1.0/"
						xmlns="http://www.w3.org/2000/svg"
						xmlns:xlink="http://www.w3.org/1999/xlink" version="1.1" x="0px" y="0px" viewBox="0 0 90.01290893554688 90" enable-background="new 0 0 90 90" xml:space="preserve">
						<g>
							<g i:extraneous="self">
								<path d="M89.1,42.9c-1.5-1.4-2.1-3-0.9-4.8c0.8-1.3,0.5-3-0.8-3.9c-1.8-1.2-1.9-2.7-1.1-4.4c0.7-1.5-0.1-3.3-1.6-3.9    c-1.7-0.6-2.7-1.7-2.4-3.7c0.3-1.5-0.7-3-2.3-3.3c-1.9-0.4-2.6-1.7-2.5-3.5c0-1.7-1.3-3-3-3c-1.8,0-3.1-0.6-3.5-2.5    c-0.3-1.5-1.8-2.5-3.3-2.3c-2,0.4-3-0.6-3.7-2.4c-0.6-1.6-2.3-2.3-3.9-1.6c-1.8,0.8-3.3,0.6-4.4-1.1c-0.8-1.3-2.6-1.7-3.9-0.8    C50,3,48.5,2.4,47.1,0.9c-1.1-1.2-3-1.2-4.1,0C41.5,2.4,40,3,38.1,1.8c-1.3-0.8-3-0.5-3.9,0.8c-1.2,1.8-2.7,1.9-4.4,1.1    C28.3,3,26.5,3.8,26,5.3c-0.6,1.7-1.7,2.7-3.7,2.4c-1.5-0.3-3,0.7-3.3,2.3c-0.4,1.9-1.7,2.5-3.5,2.5c-1.7,0-3,1.3-3,3    c0,1.8-0.6,3.1-2.5,3.5c-1.5,0.3-2.5,1.8-2.3,3.3c0.4,2-0.6,3-2.4,3.7c-1.6,0.6-2.3,2.3-1.6,3.9c0.8,1.8,0.6,3.3-1.1,4.4    c-1.3,0.8-1.7,2.6-0.8,3.9C3,40,2.4,41.5,0.9,42.9c-1.2,1.1-1.2,3,0,4.1c1.5,1.4,2.1,3,0.9,4.8c-0.8,1.3-0.5,3,0.8,3.9    c1.8,1.2,1.9,2.7,1.1,4.4C3,61.7,3.8,63.5,5.3,64c1.7,0.7,2.7,1.7,2.4,3.7c-0.3,1.5,0.7,3,2.3,3.3c1.9,0.4,2.5,1.7,2.5,3.5    c0,1.7,1.3,3,3,3c1.8,0,3.1,0.6,3.5,2.5c0.3,1.5,1.8,2.5,3.3,2.3c2-0.4,3,0.6,3.7,2.4c0.6,1.6,2.3,2.3,3.9,1.6    c1.8-0.8,3.3-0.6,4.4,1.1c0.8,1.3,2.6,1.7,3.9,0.8c1.9-1.2,3.4-0.6,4.8,0.9c1.1,1.2,3,1.2,4.1,0c1.4-1.5,3-2.1,4.8-0.9    c1.3,0.8,3,0.5,3.9-0.8c1.2-1.8,2.7-1.9,4.4-1.1c1.5,0.7,3.3-0.1,3.9-1.6c0.7-1.7,1.7-2.7,3.7-2.4c1.5,0.3,3-0.7,3.3-2.3    c0.4-1.9,1.7-2.6,3.5-2.5c1.7,0,3-1.3,3-3c0-1.8,0.6-3.1,2.5-3.5c1.5-0.3,2.5-1.8,2.3-3.3c-0.4-2,0.6-3,2.4-3.7    c1.6-0.6,2.3-2.3,1.6-3.9c-0.8-1.7-0.6-3.3,1.1-4.4c1.3-0.8,1.7-2.6,0.8-3.9c-1.2-1.9-0.6-3.4,0.9-4.8C90.3,46,90.3,44,89.1,42.9z     M45,82.2C24.5,82.2,7.8,65.5,7.8,45C7.8,24.5,24.5,7.8,45,7.8c20.5,0,37.2,16.6,37.2,37.2C82.2,65.5,65.5,82.2,45,82.2z"></path>
							</g>
						</g>
					</svg>
				</svg>
				<defs></defs>
			</g>
		</g>
		<g transform="translate(-20.79999542236328,32.142478942871094)">
			<rect fill="black" fill-opacity="1" x="-3.5" y="-3.5" width="156.09999084472656" height="50.19999694824219"></rect>
			<rect fill="black" fill-opacity="1" x="-3.5" y="-3.5"></rect>
		</g>
		<g transform="translate(-20.79999542236328,32.142478942871094)" fill="black">
			<g data-gra="path-name" fill-rule="" class="tp-name">
				<g transform="scale(1)">
					<g>
						<path d="M3.84 0Q3.24 0 2.85-0.39 2.46-0.78 2.46-1.44L2.46-1.44 2.46-3.84Q2.46-4.86 2.88-5.46 3.3-6.06 3.36-6.12L3.36-6.12 25.86-36.96 4.38-36.96Q3.78-36.96 3.39-37.35 3-37.74 3-38.34L3-38.34 3-40.56Q3-41.22 3.39-41.61 3.78-42 4.38-42L4.38-42 31.38-42Q32.04-42 32.43-41.61 32.82-41.22 32.82-40.56L32.82-40.56 32.82-38.16Q32.82-37.08 32.04-36.06L32.04-36.06 9.78-5.04 32.04-5.04Q32.7-5.04 33.09-4.65 33.48-4.26 33.48-3.66L33.48-3.66 33.48-1.38Q33.48-0.78 33.06-0.39 32.64 0 32.04 0L32.04 0 3.84 0ZM55.74 0.6Q47.94 0.6 43.68-3.51 39.42-7.62 39.18-15.9L39.18-15.9Q39.12-17.7 39.12-21L39.12-21Q39.12-24.3 39.18-26.04L39.18-26.04Q39.42-34.2 43.83-38.4 48.24-42.6 55.74-42.6L55.74-42.6Q63.24-42.6 67.62-38.4 72-34.2 72.24-26.04L72.24-26.04Q72.36-22.56 72.36-21L72.36-21Q72.36-19.5 72.24-15.9L72.24-15.9Q72-7.62 67.77-3.51 63.54 0.6 55.74 0.6L55.74 0.6ZM55.74-4.38Q60.54-4.38 63.42-7.29 66.3-10.2 66.54-16.2L66.54-16.2Q66.66-19.8 66.66-21L66.66-21Q66.66-22.32 66.54-25.8L66.54-25.8Q66.3-31.8 63.42-34.74 60.54-37.68 55.74-37.68L55.74-37.68Q50.94-37.68 48.03-34.74 45.12-31.8 44.94-25.8L44.94-25.8Q44.88-24.06 44.88-21L44.88-21Q44.88-18 44.94-16.2L44.94-16.2Q45.12-10.2 48-7.29 50.88-4.38 55.74-4.38L55.74-4.38ZM77.58 0Q77.1 0 76.74-0.36 76.38-0.72 76.38-1.2L76.38-1.2 76.5-1.86 91.38-40.68Q91.86-42 93.3-42L93.3-42 97.14-42Q98.58-42 99.06-40.68L99.06-40.68 113.94-1.86 114.06-1.2Q114.06-0.72 113.67-0.36 113.28 0 112.8 0L112.8 0 109.98 0Q109.38 0 108.99-0.33 108.6-0.66 108.48-1.02L108.48-1.02 105.12-9.66 85.26-9.66 81.96-1.02Q81.48 0 80.46 0L80.46 0 77.58 0ZM95.22-36.18L87-14.64 103.44-14.64 95.22-36.18ZM121.86 0Q121.26 0 120.9-0.39 120.54-0.78 120.54-1.38L120.54-1.38 120.54-40.56Q120.54-41.22 120.9-41.61 121.26-42 121.86-42L121.86-42 137.04-42Q143.82-42 147.69-38.73 151.56-35.46 151.56-29.22L151.56-29.22Q151.56-22.98 147.69-19.74 143.82-16.5 137.04-16.5L137.04-16.5 126.24-16.5 126.24-1.38Q126.24-0.78 125.85-0.39 125.46 0 124.86 0L124.86 0 121.86 0ZM126.24-21.36L136.74-21.36Q145.8-21.36 145.8-29.22L145.8-29.22Q145.8-33.06 143.55-35.1 141.3-37.14 136.74-37.14L136.74-37.14 126.24-37.14 126.24-21.36Z" transform="translate(-2.4600000381469727, 42.599998474121094)"></path>
					</g>
				</g>
			</g>
		</g>
	</mask>
	<defs v-gra="od">
		<linearGradient x1="0" y1="1" x2="0" y2="0" id="08b2c2d7-b239-4f84-a1e8-ce779a7d731b">
			<!-- <stop offset="0%" stop-color="#fbc2eb"></stop>
			<stop offset="100%" stop-color="#a6c0ee"></stop> -->
			<stop offset="0%" stop-color="#0e71eb"></stop>
			<stop offset="100%" stop-color="#0e71eb"></stop>
		</linearGradient>
		<filter id="42443b3f1de60f6b6fd3b6a9844b4764" filterUnits="objectBoundingBox">
			<feColorMatrix type="matrix" values="0 0 0 0 0.99609375  0 0 0 0 0.99609375  0 0 0 0 0.99609375  0 0 0 1 0"></feColorMatrix>
		</filter>
	</defs>
	<defs v-gra="id">
		<filter id="a15c2888-d9ae-4704-8437-3b0b00eada65" filterUnits="userSpaceOnUse">
			<feColorMatrix type="matrix" values="0 0 0 0 0.99609375  0 0 0 0 0.99609375  0 0 0 0 0.99609375  0 0 0 1 0"></feColorMatrix>
		</filter>
		<linearGradient x1="0" y1="1" x2="0" y2="0" id="x3596IfWyo9YPK90CpFDt">
			<!-- <stop offset="0%" stop-color="#fbc2eb"></stop>
			<stop offset="100%" stop-color="#a6c0ee"></stop> -->
			<stop offset="0%" stop-color="#0e71eb"></stop>
			<stop offset="100%" stop-color="#0e71eb"></stop>
		</linearGradient>
		<filter id="42443b3f1de60f6b6fd3b6a9844b4764" filterUnits="objectBoundingBox">
			<feColorMatrix type="matrix" values="0 0 0 0 0.99609375  0 0 0 0 0.99609375  0 0 0 0 0.99609375  0 0 0 1 0"></feColorMatrix>
		</filter>
	</defs>
	<mask v-gra="im" id="7935f3c1-0d06-4ea9-9c5b-c643d57d67c2">
		<g mask="url(#f6ae0167-8fa5-438e-9604-a2a3f2691856)" filter="url(#a15c2888-d9ae-4704-8437-3b0b00eada65)">
			<g>
				<rect fill="#000000" fill-opacity="0" stroke-width="2" x="0" y="0" width="107.5" height="107.48495210670505" class="image-rect"></rect>
				<svg x="0" y="0" width="107.5" height="107.48495210670505" filtersec="colorsf1588799999" class="image-svg-svg primary" style="overflow: visible;">
					<svg fill="#000000"
						xmlns:x="http://ns.adobe.com/Extensibility/1.0/"
						xmlns:i="http://ns.adobe.com/AdobeIllustrator/10.0/"
						xmlns:graph="http://ns.adobe.com/Graphs/1.0/"
						xmlns="http://www.w3.org/2000/svg"
						xmlns:xlink="http://www.w3.org/1999/xlink" version="1.1" x="0px" y="0px" viewBox="0 0 90.01290893554688 90" enable-background="new 0 0 90 90" xml:space="preserve">
						<g>
							<g i:extraneous="self">
								<path d="M89.1,42.9c-1.5-1.4-2.1-3-0.9-4.8c0.8-1.3,0.5-3-0.8-3.9c-1.8-1.2-1.9-2.7-1.1-4.4c0.7-1.5-0.1-3.3-1.6-3.9    c-1.7-0.6-2.7-1.7-2.4-3.7c0.3-1.5-0.7-3-2.3-3.3c-1.9-0.4-2.6-1.7-2.5-3.5c0-1.7-1.3-3-3-3c-1.8,0-3.1-0.6-3.5-2.5    c-0.3-1.5-1.8-2.5-3.3-2.3c-2,0.4-3-0.6-3.7-2.4c-0.6-1.6-2.3-2.3-3.9-1.6c-1.8,0.8-3.3,0.6-4.4-1.1c-0.8-1.3-2.6-1.7-3.9-0.8    C50,3,48.5,2.4,47.1,0.9c-1.1-1.2-3-1.2-4.1,0C41.5,2.4,40,3,38.1,1.8c-1.3-0.8-3-0.5-3.9,0.8c-1.2,1.8-2.7,1.9-4.4,1.1    C28.3,3,26.5,3.8,26,5.3c-0.6,1.7-1.7,2.7-3.7,2.4c-1.5-0.3-3,0.7-3.3,2.3c-0.4,1.9-1.7,2.5-3.5,2.5c-1.7,0-3,1.3-3,3    c0,1.8-0.6,3.1-2.5,3.5c-1.5,0.3-2.5,1.8-2.3,3.3c0.4,2-0.6,3-2.4,3.7c-1.6,0.6-2.3,2.3-1.6,3.9c0.8,1.8,0.6,3.3-1.1,4.4    c-1.3,0.8-1.7,2.6-0.8,3.9C3,40,2.4,41.5,0.9,42.9c-1.2,1.1-1.2,3,0,4.1c1.5,1.4,2.1,3,0.9,4.8c-0.8,1.3-0.5,3,0.8,3.9    c1.8,1.2,1.9,2.7,1.1,4.4C3,61.7,3.8,63.5,5.3,64c1.7,0.7,2.7,1.7,2.4,3.7c-0.3,1.5,0.7,3,2.3,3.3c1.9,0.4,2.5,1.7,2.5,3.5    c0,1.7,1.3,3,3,3c1.8,0,3.1,0.6,3.5,2.5c0.3,1.5,1.8,2.5,3.3,2.3c2-0.4,3,0.6,3.7,2.4c0.6,1.6,2.3,2.3,3.9,1.6    c1.8-0.8,3.3-0.6,4.4,1.1c0.8,1.3,2.6,1.7,3.9,0.8c1.9-1.2,3.4-0.6,4.8,0.9c1.1,1.2,3,1.2,4.1,0c1.4-1.5,3-2.1,4.8-0.9    c1.3,0.8,3,0.5,3.9-0.8c1.2-1.8,2.7-1.9,4.4-1.1c1.5,0.7,3.3-0.1,3.9-1.6c0.7-1.7,1.7-2.7,3.7-2.4c1.5,0.3,3-0.7,3.3-2.3    c0.4-1.9,1.7-2.6,3.5-2.5c1.7,0,3-1.3,3-3c0-1.8,0.6-3.1,2.5-3.5c1.5-0.3,2.5-1.8,2.3-3.3c-0.4-2,0.6-3,2.4-3.7    c1.6-0.6,2.3-2.3,1.6-3.9c-0.8-1.7-0.6-3.3,1.1-4.4c1.3-0.8,1.7-2.6,0.8-3.9c-1.2-1.9-0.6-3.4,0.9-4.8C90.3,46,90.3,44,89.1,42.9z     M45,82.2C24.5,82.2,7.8,65.5,7.8,45C7.8,24.5,24.5,7.8,45,7.8c20.5,0,37.2,16.6,37.2,37.2C82.2,65.5,65.5,82.2,45,82.2z"></path>
							</g>
						</g>
					</svg>
				</svg>
				<defs>
					<filter id="colors174692720">
						<feColorMatrix type="matrix" values="0 0 0 0 0  0 0 0 0 0  0 0 0 0 0  0 0 0 1 0" class="icon-fecolormatrix"></feColorMatrix>
					</filter>
					<filter id="colorsf1588799999">
						<feColorMatrix type="matrix" values="0 0 0 0 0.99609375  0 0 0 0 0.99609375  0 0 0 0 0.99609375  0 0 0 1 0" class="icon-fecolormatrix"></feColorMatrix>
					</filter>
					<filter id="colorsb1837016361">
						<feColorMatrix type="matrix" values="0 0 0 0 0  0 0 0 0 0  0 0 0 0 0  0 0 0 1 0" class="icon-fecolormatrix"></feColorMatrix>
					</filter>
				</defs>
			</g>
		</g>
	</mask>
</svg>