<?xml version="1.0" standalone="no"?>
<!DOCTYPE svg PUBLIC "-//W3C//DTD SVG 1.1//EN" "http://www.w3.org/Graphics/SVG/1.1/DTD/svg11.dtd">
<svg id="svg" version="1.1" width="2658" height="1512" xmlns="http://www.w3.org/2000/svg"><path d="M576.593 267.245 L 577.500 282.489 593.897 288.249 C 602.916 291.417,611.822 295.694,613.688 297.754 C 619.637 304.321,627.127 339.615,628.437 367.255 C 629.134 381.970,631.328 400.345,633.313 408.089 C 636.080 418.886,636.109 425.396,633.437 436.007 C 631.256 444.670,630.680 459.298,631.896 475.128 L 633.840 500.412 624.702 505.137 C 619.676 507.736,613.804 513.838,611.653 518.697 L 607.743 527.531 596.590 508.907 C 590.456 498.665,584.565 486.283,583.501 481.392 C 580.225 466.346,572.288 450.000,568.259 450.000 C 566.152 450.000,562.588 448.313,560.338 446.250 C 546.655 433.708,526.171 425.308,509.268 425.308 C 499.114 425.308,495.000 424.110,495.000 421.154 C 495.000 418.869,493.692 417.000,492.094 417.000 C 490.496 417.000,489.965 419.025,490.915 421.500 C 491.865 423.975,491.147 426.000,489.321 426.000 C 487.494 426.000,486.000 424.570,486.000 422.823 C 486.000 421.076,484.709 420.444,483.131 421.419 C 481.553 422.394,480.913 424.889,481.709 426.963 C 482.505 429.037,478.346 436.082,472.467 442.617 C 462.359 453.853,461.884 455.316,463.740 469.500 C 466.136 487.807,471.341 498.388,485.455 513.642 C 495.929 524.963,512.382 535.068,517.827 533.524 C 521.790 532.401,537.705 541.491,544.051 548.504 C 550.821 555.985,548.791 559.910,536.788 562.546 C 531.760 563.651,523.205 568.817,517.778 574.027 C 512.350 579.237,502.953 587.871,496.895 593.212 C 485.342 603.399,481.953 609.916,475.485 634.384 C 471.844 648.156,472.033 650.112,478.025 660.588 C 484.002 671.038,484.150 672.538,479.951 680.087 C 476.979 685.430,471.172 689.489,463.199 691.798 C 456.488 693.741,446.789 697.506,441.647 700.165 C 436.505 702.824,427.843 705.028,422.399 705.063 C 416.955 705.098,403.050 708.467,391.500 712.550 C 366.044 721.549,358.669 721.753,339.000 714.000 C 330.348 710.590,316.704 708.000,307.389 708.000 C 293.000 708.000,291.000 708.732,291.000 714.000 C 291.000 717.300,289.796 720.000,288.325 720.000 C 286.854 720.000,284.764 723.534,283.680 727.853 C 281.439 736.779,285.900 743.048,303.834 756.174 C 313.868 763.518,316.449 764.144,326.334 761.632 C 332.475 760.071,341.422 756.615,346.215 753.952 C 354.338 749.440,355.195 749.473,358.821 754.432 C 366.390 764.783,416.310 771.005,444.000 765.049 C 474.616 758.464,499.309 749.816,506.330 743.220 C 512.804 737.138,524.778 714.921,526.736 705.358 C 527.203 703.080,529.028 699.772,530.792 698.008 C 532.556 696.244,534.000 692.290,534.000 689.223 C 534.000 686.156,535.153 684.358,536.561 685.229 C 537.970 686.100,540.683 683.387,542.590 679.201 C 546.431 670.773,557.058 670.090,561.301 678.000 C 570.130 694.458,573.498 705.850,571.727 713.262 C 569.435 722.857,569.439 722.649,571.102 743.443 C 572.233 757.596,571.654 759.662,565.938 761.849 C 562.397 763.203,557.205 766.861,554.400 769.976 C 547.327 777.832,531.228 817.872,529.047 833.029 C 527.449 844.142,531.730 886.692,535.861 900.750 C 536.710 903.638,535.921 906.000,534.108 906.000 C 532.295 906.000,529.978 903.638,528.959 900.750 C 525.103 889.825,515.094 882.000,504.977 882.000 C 498.166 882.000,495.000 880.590,495.000 877.557 C 495.000 875.114,491.608 872.263,487.462 871.222 C 483.316 870.182,478.928 867.726,477.712 865.765 C 473.986 859.758,456.899 849.002,451.037 848.973 C 447.992 848.958,442.020 853.180,437.766 858.355 C 431.082 866.486,429.174 867.304,423.713 864.382 C 413.159 858.733,404.459 860.338,351.390 877.718 C 302.053 893.877,299.730 895.007,281.985 911.468 C 263.722 928.411,263.645 928.553,267.240 938.632 L 270.854 948.765 313.177 946.802 C 372.824 944.035,391.932 943.994,412.423 946.590 C 428.542 948.631,432.016 950.426,446.923 964.410 C 456.040 972.963,468.563 983.005,474.750 986.725 C 480.938 990.445,486.000 994.612,486.000 995.984 C 486.000 997.356,470.711 1017.209,452.024 1040.102 C 422.061 1076.807,417.664 1083.660,414.808 1098.109 C 413.026 1107.120,412.291 1115.662,413.175 1117.092 C 414.059 1118.522,420.991 1118.992,428.580 1118.137 C 438.717 1116.994,443.588 1114.714,446.939 1109.541 C 454.753 1097.479,468.263 1086.697,478.006 1084.749 C 483.146 1083.721,492.124 1079.572,497.958 1075.529 C 508.138 1068.475,509.711 1068.278,537.032 1070.639 C 559.996 1072.624,572.170 1075.712,600.000 1086.612 C 618.975 1094.043,641.925 1101.823,651.000 1103.900 C 660.075 1105.976,670.571 1109.602,674.325 1111.956 C 683.634 1117.795,722.191 1114.351,735.047 1106.533 C 749.621 1097.670,753.001 1085.489,752.996 1041.846 C 752.991 996.917,747.904 964.583,734.866 926.611 C 729.152 909.969,726.083 896.079,727.070 891.331 C 734.049 857.765,734.763 849.469,731.984 834.246 C 730.352 825.306,727.312 815.856,725.229 813.246 C 722.607 809.961,721.748 799.873,722.440 780.480 L 723.440 752.460 731.072 754.375 C 746.808 758.325,768.000 735.036,768.000 713.793 C 768.000 708.841,765.669 701.231,762.819 696.882 C 759.957 692.513,756.810 679.938,755.787 668.782 C 754.537 655.142,751.184 643.381,745.455 632.544 C 740.790 623.720,734.958 612.450,732.496 607.500 C 730.033 602.550,721.301 587.947,713.090 575.048 L 698.163 551.596 695.734 500.757 C 694.397 472.796,692.513 448.639,691.546 447.074 C 690.579 445.509,688.710 429.665,687.393 411.864 C 684.790 376.668,686.070 380.163,652.749 317.270 C 638.504 290.383,629.899 277.507,623.744 273.871 C 618.930 271.028,614.264 266.407,613.374 263.602 C 611.516 257.750,597.153 252.000,584.396 252.000 C 575.807 252.000,575.699 252.211,576.593 267.245 M942.000 377.280 C 942.000 378.938,931.970 381.235,919.712 382.384 C 897.651 384.451,897.271 384.633,882.486 400.267 C 862.656 421.234,844.159 457.390,848.754 466.202 C 851.786 472.015,854.581 483.310,860.702 514.500 C 863.866 530.616,870.520 552.785,873.331 556.574 C 874.586 558.264,877.863 566.279,880.615 574.384 C 883.367 582.490,889.437 593.932,894.103 599.811 L 902.588 610.500 901.281 682.096 C 900.223 739.987,900.837 756.602,904.487 768.891 C 909.405 785.454,910.416 801.000,906.574 801.000 C 905.240 801.000,899.671 809.438,894.198 819.750 C 888.725 830.063,882.335 840.694,879.999 843.375 C 877.662 846.056,876.074 849.431,876.471 850.875 C 877.292 853.865,868.052 872.185,836.560 930.000 C 807.084 984.115,805.680 987.899,805.583 1013.514 C 805.506 1033.965,806.098 1036.042,813.917 1042.764 C 824.077 1051.498,836.752 1052.064,862.212 1044.920 C 885.530 1038.377,897.734 1026.118,925.956 980.887 C 968.146 913.271,987.308 900.501,1013.502 922.541 C 1022.063 929.745,1062.141 1005.800,1066.440 1023.000 C 1069.722 1036.133,1108.175 1064.848,1122.609 1064.945 C 1140.861 1065.068,1148.136 1057.574,1156.753 1029.776 C 1161.124 1015.677,1158.291 996.140,1146.549 959.402 C 1133.405 918.274,1125.119 888.904,1123.212 876.684 C 1122.112 869.634,1120.039 863.142,1118.606 862.256 C 1117.173 861.371,1115.968 858.363,1115.929 855.573 C 1115.890 852.783,1112.406 842.400,1108.188 832.500 C 1094.578 800.558,1094.148 795.385,1103.831 780.025 C 1108.521 772.586,1113.359 763.125,1114.583 759.000 C 1115.808 754.875,1120.040 745.285,1123.989 737.689 C 1129.113 727.835,1133.699 708.068,1140.000 668.689 C 1144.857 638.335,1148.663 610.800,1148.459 607.500 C 1148.040 600.750,1166.196 541.259,1171.062 533.435 C 1174.572 527.792,1172.289 522.120,1155.933 495.837 C 1145.173 478.547,1123.410 456.000,1117.481 456.000 C 1115.394 456.000,1109.819 453.943,1105.093 451.429 C 1099.717 448.568,1089.762 447.047,1078.500 447.365 C 1068.600 447.644,1058.138 446.856,1055.250 445.615 C 1051.197 443.873,1050.000 444.799,1050.000 449.679 C 1050.000 453.298,1051.924 456.000,1054.500 456.000 C 1056.975 456.000,1059.000 457.366,1059.000 459.035 C 1059.000 460.897,1054.358 461.329,1047.002 460.152 C 1036.691 458.504,1031.364 460.080,1009.108 471.367 C 985.397 483.392,982.628 485.742,976.300 499.220 C 970.721 511.104,967.185 514.707,957.945 517.925 C 951.650 520.116,945.645 521.930,944.601 521.955 C 941.015 522.040,921.000 485.570,921.000 478.952 C 921.000 475.312,918.300 470.022,915.000 467.196 C 911.700 464.371,909.000 458.698,909.000 454.590 C 909.000 443.581,918.007 423.000,922.826 423.000 C 925.122 423.000,927.000 420.407,927.000 417.238 C 927.000 413.276,929.810 410.859,936.000 409.500 C 943.728 407.803,945.000 406.158,945.000 397.862 C 945.000 392.548,946.407 386.793,948.127 385.073 C 950.297 382.903,949.837 380.770,946.627 378.106 C 944.075 375.987,942.000 375.617,942.000 377.280 M1476.000 400.697 C 1476.000 401.631,1477.571 405.343,1479.491 408.947 C 1482.664 414.902,1482.520 415.119,1477.919 411.322 C 1467.344 402.598,1469.800 411.458,1483.138 430.149 C 1490.762 440.834,1497.000 450.911,1497.000 452.544 C 1497.000 454.178,1495.080 459.336,1492.733 464.007 C 1487.508 474.407,1480.722 498.113,1474.415 528.000 C 1471.804 540.375,1468.092 556.575,1466.168 564.000 C 1464.244 571.425,1463.030 579.198,1463.471 581.272 C 1463.912 583.347,1462.903 587.397,1461.228 590.272 C 1458.336 595.237,1458.178 595.236,1458.091 590.250 C 1458.041 587.363,1455.638 582.397,1452.750 579.215 C 1443.000 568.472,1440.917 565.252,1437.967 556.363 C 1434.670 546.426,1422.032 538.093,1418.624 543.609 C 1417.495 545.436,1412.868 547.325,1408.343 547.808 C 1403.818 548.290,1398.694 550.106,1396.957 551.843 C 1392.565 556.235,1388.163 555.804,1390.899 551.250 C 1392.409 548.736,1391.466 548.867,1388.039 551.648 C 1384.017 554.911,1383.682 556.707,1386.471 560.067 C 1389.267 563.436,1389.116 564.144,1385.758 563.419 C 1382.440 562.703,1381.610 566.145,1381.997 579.000 C 1382.428 593.284,1382.179 594.090,1380.142 585.000 C 1378.848 579.225,1377.443 576.188,1377.020 578.250 C 1376.596 580.313,1375.913 583.350,1375.500 585.000 C 1375.088 586.650,1374.475 590.363,1374.138 593.250 C 1373.756 596.532,1372.959 597.095,1372.013 594.750 C 1371.181 592.688,1368.999 591.000,1367.164 591.000 C 1365.329 591.000,1360.379 587.708,1356.164 583.685 C 1351.949 579.662,1343.951 573.250,1338.391 569.435 C 1324.076 559.615,1306.156 514.839,1300.226 474.076 C 1299.392 468.343,1296.664 461.392,1294.164 458.629 C 1290.470 454.547,1290.159 450.632,1292.501 437.745 C 1295.388 421.860,1294.521 414.000,1289.881 414.000 C 1288.519 414.000,1286.547 416.700,1285.500 420.000 C 1282.985 427.924,1278.660 427.647,1277.459 419.485 C 1276.001 409.576,1269.000 408.939,1269.000 418.715 C 1269.000 426.483,1268.702 426.660,1263.514 421.965 C 1256.168 415.317,1253.184 415.702,1255.500 423.000 C 1257.445 429.129,1252.853 431.426,1249.500 426.000 C 1246.178 420.624,1239.021 422.554,1241.156 428.250 C 1242.839 432.742,1242.431 432.938,1238.329 429.604 C 1235.245 427.099,1232.866 426.790,1231.661 428.739 C 1230.631 430.406,1235.573 434.697,1242.644 438.275 C 1249.715 441.853,1256.779 446.968,1258.343 449.640 C 1262.726 457.132,1262.431 464.576,1257.678 466.400 C 1255.067 467.402,1254.141 470.040,1255.321 473.114 C 1256.389 475.899,1257.941 489.050,1258.769 502.339 C 1259.686 517.061,1262.503 531.188,1265.980 538.500 C 1269.529 545.963,1272.219 559.724,1273.094 574.897 C 1273.869 588.315,1276.560 605.865,1279.075 613.897 C 1281.590 621.929,1284.942 637.535,1286.525 648.578 C 1288.108 659.621,1292.997 676.496,1297.390 686.078 C 1311.569 717.003,1313.690 735.354,1312.199 814.164 C 1311.453 853.579,1310.087 887.051,1309.163 888.545 C 1308.239 890.040,1309.069 893.173,1311.007 895.509 C 1315.066 900.400,1312.468 916.287,1306.117 925.418 C 1303.853 928.672,1302.000 936.354,1302.000 942.489 C 1302.000 953.821,1292.097 984.452,1280.087 1010.266 C 1273.053 1025.383,1264.162 1036.534,1241.425 1058.748 C 1217.545 1082.080,1204.104 1117.948,1215.750 1127.265 C 1226.500 1135.866,1232.663 1134.556,1247.727 1120.465 C 1260.399 1108.612,1263.470 1107.040,1268.595 1109.783 C 1278.314 1114.985,1292.188 1113.513,1307.746 1105.629 C 1324.299 1097.240,1335.110 1084.600,1351.473 1054.500 C 1370.043 1020.339,1370.354 1020.000,1383.150 1020.000 C 1398.237 1020.000,1407.045 1023.589,1420.109 1035.059 C 1430.645 1044.310,1430.784 1044.716,1426.340 1053.309 C 1422.884 1059.992,1422.473 1064.783,1424.623 1073.299 C 1430.150 1095.187,1431.389 1112.668,1427.878 1119.229 C 1422.783 1128.749,1427.015 1150.369,1436.083 1161.146 C 1452.692 1180.885,1469.986 1164.669,1469.995 1129.350 C 1469.998 1119.367,1471.423 1109.777,1473.161 1108.039 C 1475.296 1105.904,1481.318 1105.786,1491.703 1107.673 C 1539.472 1116.356,1544.518 1067.762,1503.569 993.404 C 1487.912 964.973,1485.767 959.874,1475.801 927.394 C 1469.559 907.048,1469.416 905.065,1474.009 902.495 C 1477.235 900.689,1479.026 895.777,1479.073 888.601 C 1479.114 882.495,1480.448 871.862,1482.039 864.972 C 1484.567 854.020,1488.760 803.297,1492.287 741.000 C 1492.966 729.003,1497.606 709.060,1504.346 689.169 C 1516.946 651.987,1520.157 631.503,1515.486 618.105 C 1512.959 610.856,1513.283 603.439,1516.887 586.011 C 1519.465 573.545,1520.906 559.848,1520.089 555.575 C 1519.272 551.301,1519.695 544.932,1521.029 541.423 C 1526.495 527.047,1533.726 473.526,1530.622 470.422 C 1526.297 466.097,1529.398 435.674,1535.367 423.868 C 1541.085 412.559,1537.950 406.881,1531.261 416.431 C 1525.127 425.189,1521.602 424.716,1520.449 414.981 C 1519.126 403.800,1512.009 402.138,1511.967 413.000 L 1511.933 421.500 1504.249 411.750 C 1496.326 401.696,1489.034 398.549,1492.085 406.500 C 1494.605 413.067,1490.069 412.002,1485.696 405.000 C 1482.250 399.482,1476.000 396.708,1476.000 400.697 M2220.119 403.356 C 2218.077 405.817,2217.394 410.515,2218.548 414.152 C 2220.347 419.819,2219.746 420.334,2213.546 418.441 C 2209.671 417.258,2204.369 414.425,2201.764 412.145 C 2195.334 406.518,2193.000 406.934,2193.000 413.709 C 2193.000 416.849,2197.913 423.359,2203.918 428.177 C 2214.458 436.632,2214.672 437.188,2210.114 444.218 C 2207.517 448.223,2203.283 462.975,2200.704 477.000 C 2198.126 491.025,2194.591 508.575,2192.848 516.000 C 2191.105 523.425,2188.211 536.925,2186.416 546.000 C 2182.465 565.970,2174.172 577.388,2149.579 596.715 L 2130.892 611.400 2127.446 596.471 C 2122.900 576.778,2122.997 576.000,2130.000 576.000 C 2133.434 576.000,2136.000 574.000,2136.000 571.323 C 2136.000 568.751,2134.650 567.480,2133.000 568.500 C 2131.350 569.520,2130.000 568.158,2130.000 565.475 C 2130.000 561.961,2131.679 561.129,2136.000 562.500 C 2143.705 564.945,2143.552 563.739,2134.878 553.645 C 2129.646 547.556,2126.103 545.880,2121.531 547.332 C 2117.668 548.558,2115.944 550.969,2116.987 553.688 C 2118.174 556.780,2117.239 557.520,2113.808 556.203 C 2110.700 555.011,2105.548 557.663,2099.514 563.562 C 2094.326 568.635,2088.937 572.079,2087.540 571.216 C 2086.143 570.352,2085.000 571.751,2085.000 574.323 C 2085.000 579.562,2080.345 580.603,2077.500 576.000 C 2075.086 572.094,2046.914 572.094,2044.500 576.000 C 2043.480 577.650,2040.101 579.000,2036.990 579.000 C 2029.550 579.000,2017.049 590.563,2014.310 599.976 C 2012.287 606.930,2012.519 607.140,2017.629 602.976 C 2022.573 598.949,2022.934 599.005,2021.238 603.537 C 2020.200 606.307,2018.424 613.519,2017.290 619.563 C 2015.406 629.609,2014.554 630.384,2007.364 628.594 C 1984.718 622.957,1983.341 623.055,1981.736 630.430 C 1980.890 634.318,1979.671 644.925,1979.028 654.000 C 1978.385 663.075,1976.191 678.828,1974.152 689.007 L 1970.445 707.513 1955.843 709.522 C 1936.373 712.199,1926.031 709.547,1914.352 698.880 C 1909.005 693.996,1903.835 690.000,1902.863 690.000 C 1899.148 690.000,1868.509 656.138,1865.323 648.510 C 1863.482 644.105,1862.320 634.237,1862.739 626.582 C 1863.173 618.678,1862.041 611.761,1860.120 610.574 C 1856.041 608.053,1847.376 614.563,1849.733 618.378 C 1852.220 622.400,1841.304 645.317,1837.651 643.745 C 1835.918 643.000,1829.382 640.722,1823.126 638.683 C 1814.572 635.895,1812.247 633.801,1813.751 630.238 C 1814.851 627.632,1818.782 617.400,1822.486 607.500 C 1828.707 590.874,1829.878 589.551,1837.838 590.164 C 1842.578 590.530,1847.964 592.892,1849.808 595.414 C 1854.961 602.461,1857.683 600.851,1853.468 593.250 C 1851.410 589.538,1849.966 585.626,1850.260 584.558 C 1850.554 583.489,1847.804 583.364,1844.147 584.279 C 1837.735 585.883,1837.686 585.731,1842.750 579.985 C 1845.638 576.708,1848.000 571.925,1848.000 569.354 C 1848.000 563.710,1864.342 560.555,1869.108 565.280 C 1871.433 567.585,1871.751 566.912,1870.227 562.912 C 1868.446 558.235,1865.741 557.550,1853.650 558.712 C 1845.704 559.475,1839.825 559.092,1840.587 557.860 C 1842.014 555.550,1835.232 511.735,1830.160 490.500 C 1828.583 483.900,1825.622 471.413,1823.580 462.750 C 1821.407 453.538,1818.215 447.000,1815.889 447.000 C 1813.701 447.000,1809.328 442.613,1806.170 437.250 C 1799.202 425.417,1787.890 414.000,1783.134 414.000 C 1781.213 414.000,1778.871 411.990,1777.928 409.534 C 1776.625 406.138,1774.464 405.732,1768.916 407.842 C 1764.901 409.368,1760.789 409.789,1759.777 408.777 C 1756.951 405.951,1745.988 419.052,1746.095 425.125 C 1746.269 434.908,1754.526 442.033,1767.730 443.796 C 1778.992 445.299,1780.535 446.434,1780.798 453.409 C 1780.962 457.758,1782.093 463.833,1783.312 466.909 C 1787.549 477.596,1793.319 527.520,1791.987 541.966 C 1789.503 568.914,1788.942 570.000,1777.511 570.000 C 1771.805 570.000,1758.170 573.375,1747.211 577.500 C 1722.634 586.751,1720.769 586.768,1716.674 577.781 C 1712.329 568.245,1697.974 565.077,1686.056 571.022 C 1681.108 573.491,1673.033 576.395,1668.111 577.476 C 1663.189 578.557,1656.004 583.054,1652.144 587.471 C 1648.284 591.887,1642.510 596.983,1639.313 598.794 C 1626.008 606.335,1623.736 625.584,1630.887 670.203 L 1632.762 681.905 1618.012 665.703 C 1609.899 656.791,1599.603 645.590,1595.131 640.812 C 1590.659 636.033,1586.990 631.308,1586.977 630.312 C 1586.965 629.315,1585.624 617.025,1583.998 603.000 C 1582.372 588.975,1581.860 571.254,1582.859 563.619 C 1584.359 552.153,1585.616 549.984,1590.083 551.152 C 1597.272 553.032,1605.732 539.971,1604.468 528.944 C 1603.598 521.358,1602.281 520.448,1591.500 519.986 C 1579.148 519.456,1560.000 526.163,1560.000 531.019 C 1560.000 532.525,1556.288 537.210,1551.750 541.431 L 1543.500 549.105 1543.967 599.405 L 1544.434 649.705 1560.467 673.290 C 1569.285 686.262,1577.850 698.830,1579.500 701.219 C 1581.150 703.608,1586.988 710.499,1592.473 716.531 C 1601.145 726.069,1602.217 728.964,1600.692 738.719 C 1599.319 747.504,1600.247 751.247,1604.969 755.969 C 1612.024 763.024,1612.278 764.123,1607.250 765.843 C 1605.188 766.548,1606.520 766.626,1610.211 766.015 C 1618.775 764.599,1647.000 790.880,1647.000 800.271 C 1647.000 803.777,1648.241 807.413,1649.757 808.350 C 1651.273 809.287,1659.557 821.757,1668.166 836.061 C 1682.718 860.241,1683.579 862.732,1680.409 871.497 C 1678.534 876.683,1677.000 883.109,1677.000 885.778 C 1677.000 888.447,1672.613 898.476,1667.250 908.065 L 1657.500 925.500 1657.806 967.500 C 1658.088 1006.208,1658.854 1011.721,1667.585 1037.841 C 1672.795 1053.428,1678.693 1067.192,1680.692 1068.428 C 1686.854 1072.236,1682.582 1073.140,1650.400 1074.835 C 1621.555 1076.354,1619.192 1076.056,1617.800 1070.736 C 1616.975 1067.581,1614.601 1065.000,1612.525 1065.000 C 1610.449 1065.000,1607.974 1061.120,1607.026 1056.379 C 1605.062 1046.561,1594.651 1042.800,1584.491 1048.237 C 1575.316 1053.148,1533.315 1100.622,1526.735 1113.520 C 1516.525 1133.534,1521.151 1155.000,1535.674 1155.000 C 1538.559 1155.000,1546.440 1150.275,1553.187 1144.500 C 1559.934 1138.725,1566.941 1134.000,1568.760 1134.000 C 1570.578 1134.000,1577.788 1131.461,1584.783 1128.359 C 1597.728 1122.616,1632.000 1120.187,1632.000 1125.012 C 1632.000 1126.415,1627.350 1131.396,1621.667 1136.080 C 1604.707 1150.060,1593.891 1181.287,1601.724 1193.656 C 1605.893 1200.238,1617.697 1195.488,1634.329 1180.534 C 1642.608 1173.090,1650.871 1167.000,1652.691 1167.000 C 1654.511 1167.000,1656.000 1165.749,1656.000 1164.220 C 1656.000 1159.236,1666.364 1158.943,1672.051 1163.766 C 1676.843 1167.831,1677.496 1167.861,1676.828 1163.987 C 1674.784 1152.138,1679.143 1150.203,1701.817 1152.896 C 1713.743 1154.313,1732.950 1158.008,1744.500 1161.108 C 1781.638 1171.076,1802.277 1173.704,1813.730 1169.924 C 1825.412 1166.069,1837.816 1151.517,1842.170 1136.558 C 1847.506 1118.228,1845.804 1062.300,1838.934 1030.185 C 1835.441 1013.858,1829.877 987.675,1826.569 972.000 C 1823.002 955.098,1821.058 936.786,1821.792 927.000 C 1822.472 917.925,1822.195 901.283,1821.177 890.018 C 1820.158 878.752,1820.469 868.828,1821.867 867.964 C 1823.265 867.100,1823.450 864.167,1822.277 861.447 C 1821.105 858.726,1819.245 850.205,1818.144 842.511 C 1816.184 828.813,1816.328 828.484,1825.034 826.743 C 1830.938 825.562,1842.651 816.106,1859.893 798.599 C 1883.141 774.994,1885.635 771.390,1883.707 764.181 C 1882.523 759.753,1882.280 750.715,1883.167 744.097 L 1884.781 732.064 1895.422 741.408 C 1908.511 752.899,1922.577 759.000,1935.985 759.000 C 1941.583 759.000,1952.497 759.868,1960.239 760.929 C 1972.944 762.671,1974.924 764.050,1980.549 775.077 C 1986.538 786.816,1986.660 789.296,1983.660 838.397 L 1980.538 889.500 1989.355 897.785 C 1994.204 902.341,2004.348 907.721,2011.897 909.740 L 2025.622 913.411 2023.557 926.955 C 2022.421 934.405,2020.369 977.625,2018.996 1023.000 C 2017.623 1068.375,2015.608 1108.332,2014.519 1111.794 C 2013.424 1115.275,2014.654 1123.151,2017.271 1129.415 C 2021.838 1140.346,2021.715 1141.383,2013.752 1159.121 C 2003.022 1183.019,2002.564 1206.344,2012.549 1220.366 C 2022.676 1234.589,2036.633 1233.100,2045.156 1216.886 C 2047.870 1211.724,2051.746 1199.400,2053.769 1189.500 C 2060.360 1157.246,2068.577 1137.856,2076.754 1135.261 C 2085.312 1132.545,2090.155 1117.946,2093.955 1083.413 C 2098.644 1040.798,2102.724 1032.605,2100.774 1069.721 C 2098.966 1104.117,2101.999 1117.234,2115.247 1132.323 C 2125.863 1144.414,2142.268 1150.741,2173.500 1154.790 C 2186.700 1156.501,2203.487 1158.717,2210.805 1159.713 C 2225.631 1161.732,2243.110 1168.163,2275.036 1183.345 C 2295.656 1193.150,2347.589 1236.084,2359.638 1253.287 C 2367.423 1264.401,2374.619 1261.694,2383.232 1244.411 C 2387.504 1235.837,2390.996 1227.399,2390.991 1225.661 C 2390.976 1220.693,2372.303 1184.902,2361.951 1170.000 C 2356.793 1162.575,2347.719 1151.848,2341.786 1146.161 C 2335.854 1140.475,2331.000 1134.110,2331.000 1132.017 C 2331.000 1127.301,2321.515 1122.000,2313.076 1122.000 C 2309.600 1122.000,2302.764 1124.952,2297.884 1128.560 L 2289.012 1135.120 2277.756 1129.093 C 2252.080 1115.347,2236.238 1106.183,2232.000 1102.626 C 2224.124 1096.016,2207.672 1092.000,2188.468 1092.000 L 2169.831 1092.000 2173.654 1068.750 C 2177.701 1044.138,2182.665 1024.824,2193.125 993.000 C 2200.968 969.135,2199.928 933.159,2190.524 903.000 C 2187.179 892.275,2183.111 876.750,2181.484 868.500 C 2179.857 860.250,2176.938 847.425,2174.997 840.000 C 2172.547 830.626,2172.106 812.287,2173.556 780.000 C 2174.705 754.425,2175.837 722.265,2176.072 708.533 C 2176.397 689.597,2177.648 682.714,2181.254 680.033 C 2185.939 676.551,2191.518 666.880,2212.708 625.500 C 2218.623 613.950,2225.363 601.125,2227.687 597.000 C 2230.010 592.875,2231.931 583.974,2231.956 577.220 C 2231.980 570.465,2234.799 556.965,2238.221 547.220 C 2244.262 530.012,2250.462 483.459,2251.158 450.081 C 2251.490 434.132,2251.905 433.362,2265.667 423.148 C 2274.843 416.338,2278.806 411.606,2276.917 409.717 C 2275.028 407.828,2272.732 408.068,2270.400 410.400 C 2265.464 415.336,2260.462 414.968,2264.607 409.974 C 2271.147 402.093,2263.856 402.160,2253.478 410.076 C 2244.559 416.879,2243.276 417.225,2245.186 412.312 C 2248.767 403.097,2248.730 401.335,2244.926 399.934 C 2242.960 399.210,2239.054 403.061,2236.245 408.493 C 2231.211 418.228,2231.102 418.269,2228.563 411.407 C 2227.147 407.578,2226.746 403.221,2227.671 401.723 C 2230.432 397.257,2224.033 398.640,2220.119 403.356 M466.500 435.000 C 467.520 436.650,468.949 438.000,469.677 438.000 C 470.405 438.000,471.000 436.650,471.000 435.000 C 471.000 433.350,469.570 432.000,467.823 432.000 C 466.076 432.000,465.480 433.350,466.500 435.000 M1097.053 493.500 C 1110.909 516.607,1114.266 527.303,1107.000 525.193 C 1101.932 523.721,1090.445 523.828,1081.583 525.430 C 1076.473 526.354,1075.783 525.028,1076.524 515.708 C 1076.995 509.772,1074.780 497.212,1071.602 487.798 L 1065.824 470.681 1075.142 471.591 C 1083.133 472.371,1086.253 475.490,1097.053 493.500 M1845.000 571.179 C 1845.000 575.442,1836.360 580.360,1833.643 577.643 C 1831.728 575.728,1838.882 567.000,1842.367 567.000 C 1843.815 567.000,1845.000 568.881,1845.000 571.179 M1760.188 580.813 C 1759.191 581.809,1756.603 581.916,1754.438 581.049 C 1752.044 580.092,1752.755 579.381,1756.250 579.237 C 1759.413 579.107,1761.184 579.816,1760.188 580.813 M1774.965 587.486 C 1772.234 590.504,1770.000 594.624,1770.000 596.642 C 1770.000 601.673,1757.063 623.948,1754.125 623.977 C 1752.818 623.990,1749.005 621.443,1745.650 618.318 C 1737.842 611.043,1741.185 605.107,1760.516 591.922 C 1776.272 581.174,1782.371 579.302,1774.965 587.486 M1355.250 599.813 C 1360.612 604.041,1365.000 608.692,1365.000 610.148 C 1365.000 613.346,1353.110 624.000,1349.541 624.000 C 1348.143 624.000,1347.107 626.363,1347.237 629.250 C 1347.381 632.443,1348.071 633.017,1348.998 630.716 C 1349.837 628.634,1353.021 625.594,1356.074 623.961 C 1361.131 621.254,1361.470 621.990,1359.888 632.245 C 1357.785 645.871,1357.993 645.576,1352.088 643.311 C 1347.637 641.602,1345.022 632.374,1339.518 598.955 C 1337.414 586.174,1337.991 586.205,1355.250 599.813 M1744.604 597.311 C 1738.772 602.432,1733.946 608.844,1733.880 611.561 C 1733.804 614.699,1732.077 613.395,1729.145 607.985 C 1723.761 598.049,1723.965 597.726,1739.027 592.355 C 1755.719 586.402,1756.370 586.981,1744.604 597.311 M1368.869 636.000 C 1368.006 639.300,1366.783 642.000,1366.150 642.000 C 1365.518 642.000,1365.000 639.300,1365.000 636.000 C 1365.000 632.700,1366.224 630.000,1367.719 630.000 C 1369.215 630.000,1369.732 632.700,1368.869 636.000 M1770.000 1098.073 C 1770.000 1101.465,1761.101 1102.120,1760.798 1098.750 C 1760.686 1097.513,1760.002 1091.775,1759.276 1086.000 L 1757.957 1075.500 1763.979 1085.323 C 1767.290 1090.725,1770.000 1096.462,1770.000 1098.073 " stroke="none" fill="black" fill-rule="evenodd"/></svg>
